<?xml version="1.0" encoding="utf-8"?>
<?xml-stylesheet type="text/xsl" href="rss1.xsl"?>
<rss version="2.0" xmlns:atom="http://www.w3.org/2005/Atom" xmlns:content="http://purl.org/rss/1.0/modules/content/" xmlns:dc="http://purl.org/dc/elements/1.1/" xmlns:media="http://search.yahoo.com/mrss/">
<channel>
 <title>Getty</title>
 <link>http://www.gettyimg.com/</link>
 <atom:link href="http://www.gettyimg.com/" rel="self" type="application/rss+xml" />

 
                <item>
                <title><![CDATA[【Apple Music】WEB-RiP - Pharrell Williams &amp; Miley Cyrus - Doctor (Work It Out) [Apple HD Music Video]]]></title>
                <link><![CDATA[https://sharemania.us/threads/pharrell-williams-miley-cyrus-doctor-work-it-out-apple-hd-music-video.242067/]]></link>
                <description><![CDATA[<article>
<blockquote class="messageText SelectQuoteContainer ugc baseHtml">
<span style="font-size: 22px"><b>Pharrell Williams &amp; Miley Cyrus - Doctor (Work It Out) [Apple HD Music Video]</b></span><br>
<br>
<img src="https://imgur.com/c59N2Y1.jpg" class="bbCodeImage LbImage" alt="[​IMG]" data-url="https://imgur.com/c59N2Y1.jpg" style=""><br>
<br>
<div class="bbCodeBlock bbCodeCode">
<div class="type">Code:</div>
<pre>General
Format                         : MPEG-4
Codec ID                       : M4V  (isom/iso4/M4V /mp42)
File size                      : 147 MiB
Duration                       : 3 min 2 s
Overall bit rate mode          : Variable
Overall bit rate               : 6 776 kb/s
Movie name                     : Doctor (Work It Out)
Performer                      : Pharrell Williams &amp; Miley Cyrus
Genre                          : Pop
ContentType                    : Music Video
Recorded date                  : UTC 2024-03-03 08:00:00
Encoded date                   : UTC 2024-03-27 15:43:42
Tagged date                    : UTC 2024-03-27 15:43:42
Copyright                      : ℗ (C) 2024 Columbia Records, a Division of Sony Music Entertainment
Cover                          : Yes
Rating                         : None
GenreID                        : 1614
AppleStoreCountry              : United Kingdom
AlbumTitleID                   : 1361068
AppleStoreCatalogID            : 1733760746

Video
ID                             : 2
Format                         : AVC
Format/Info                    : Advanced Video Codec
Format profile                 : High@L4
Format settings                : CABAC / 4 Ref Frames
Format settings, CABAC         : Yes
Format settings, Reference fra : 4 frames
Codec ID                       : avc1
Codec ID/Info                  : Advanced Video Coding
Duration                       : 3 min 2 s
Bit rate                       : 6 494 kb/s
Maximum bit rate               : 11.2 Mb/s
Width                          : 1 920 pixels
Height                         : 1 080 pixels
Display aspect ratio           : 16:9
Frame rate mode                : Constant
Frame rate                     : 23.976 (24000/1001) FPS
Color space                    : YUV
Chroma subsampling             : 4:2:0
Bit depth                      : 8 bits
Scan type                      : Progressive
Bits/(Pixel*Frame)             : 0.131
Stream size                    : 141 MiB (96%)
Title                          : Core Media Video
Encoded date                   : UTC 2024-03-07 20:07:19
Tagged date                    : UTC 2024-03-27 15:43:44
Color range                    : Limited
Color primaries                : BT.709
Transfer characteristics       : BT.709
Matrix coefficients            : BT.709
Codec configuration box        : avcC

Audio
ID                             : 1
Format                         : AAC LC
Format/Info                    : Advanced Audio Codec Low Complexity
Codec ID                       : mp4a-40-2
Duration                       : 3 min 2 s
Duration_LastFrame             : -11 ms
Bit rate mode                  : Variable
Bit rate                       : 265 kb/s
Maximum bit rate               : 352 kb/s
Channel(s)                     : 2 channels
Channel layout                 : L R
Sampling rate                  : 48.0 kHz
Frame rate                     : 46.875 FPS (1024 SPF)
Compression mode               : Lossy
Stream size                    : 5.72 MiB (4%)
Title                          : Core Media Audio
Encoded date                   : UTC 2024-03-07 20:02:36
Tagged date                    : UTC 2024-03-27 15:43:44</pre>
</div>
<div class="bbCodeBlock bbCodeVfcHH HiddenContent">
<div class="attribution type">Hidden Content:</div>
<blockquote>You must reply before you can see the hidden data contained here.</blockquote>
</div>
<div class="messageTextEndMarker">&nbsp;</div>
</blockquote>
</article>]]></description>
                <author><![CDATA[abby0511]]></author>
                </item>

                
                <item>
                <title><![CDATA[【Requests】[REQ CAP] - Coachella 2024 - Bebe Rexha &amp; Reneé Rapp]]></title>
                <link><![CDATA[https://sharemania.us/threads/coachella-2024-bebe-rexha-rene%C3%A9-rapp.242068/]]></link>
                <description><![CDATA[<article>
<blockquote class="messageText SelectQuoteContainer ugc baseHtml">
Can someone please cap their sets on sunday, please?<br>
<br>
Bebe’ in Coachella Stage and Reneé’s in Outdoor Theatre
<div class="messageTextEndMarker">&nbsp;</div>
</blockquote>
</article>]]></description>
                <author><![CDATA[Paulorpaes]]></author>
                </item>

                </channel></rss>